<svg><defs><svg id="account_box" viewBox="0 0 18 18" width="18" height="18"><path d="M15 2H3c-.55 0-1 .45-1 1v12c0 .55.45 1 1 1h12c.55 0 1-.45 1-1V3c0-.55-.45-1-1-1zM9 4.75c1.24 0 2.25 1.01 2.25 2.25S10.24 9.25 9 9.25 6.75 8.24 6.75 7 7.76 4.75 9 4.75zM13.5 14h-9v-.75c0-1.5 3-2.25 4.5-2.25s4.5.75 4.5 2.25V14z"/></svg><svg id="account_circle" viewBox="0 0 18 18" width="18" height="18"><path d="M9 1C4.58 1 1 4.58 1 9s3.58 8 8 8 8-3.58 8-8-3.58-8-8-8zm0 2.75c1.24 0 2.25 1.01 2.25 2.25S10.24 8.25 9 8.25 6.75 7.24 6.75 6 7.76 3.75 9 3.75zM9 14.5c-1.86 0-3.49-.92-4.49-2.33C4.62 10.72 7.53 10 9 10c1.47 0 4.38.72 4.49 2.17-1 1.41-2.63 2.33-4.49 2.33z"/></svg><svg id="event" viewBox="0 0 18 18" width="18" height="18"><path d="M13 9H9v4h4V9zm2-7h-1V1h-2v1H6V1H4v1H3c-.55 0-1 .45-1 1v12c0 .55.45 1 1 1h12c.55 0 1-.45 1-1V3c0-.55-.45-1-1-1zm-1 12H4V6h10v8z"/></svg><svg id="star_rate" viewBox="0 0 18 18" width="18" height="18"><path d="M9 11.3l3.71 2.7-1.42-4.36L15 7h-4.55L9 2.5 7.55 7H3l3.71 2.64L5.29 14z"/></svg></defs></svg>