<svg><defs><svg id="volume_down" viewBox="0 0 18 18" width="18" height="18"><path d="M4 7v4h3l4 4V3L7 7H4zm9-1v6c1.17-.49 2-1.65 2-3s-.83-2.51-2-3z"/></svg><svg id="volume_mute" viewBox="0 0 18 18" width="18" height="18"><path d="M5 7v4h3l4 4V3L8 7H5z"/></svg><svg id="volume_up" viewBox="0 0 18 18" width="18" height="18"><path d="M12.79 9c0-1.3-.72-2.42-1.79-3v6c1.06-.58 1.79-1.7 1.79-3zM2 7v4h3l4 4V3L5 7H2zm9-5v1.5c2.32.74 4 2.93 4 5.5s-1.68 4.76-4 5.5V16c3.15-.78 5.5-3.6 5.5-7S14.15 2.78 11 2z"/></svg></defs></svg>