<svg><defs><svg id="battery_20" viewBox="0 0 18 18" width="18" height="18"><path fill-opacity=".3" d="M13 4c0-.55-.45-1-1-1h-1.5V1.5h-3V3H6c-.55 0-1 .45-1 1v8.5h8V4z"/><path d="M5 12.5V15c0 .55.45 1 1 1h6c.55 0 1-.45 1-1v-2.5H5z"/></svg><svg id="battery_30" viewBox="0 0 18 18" width="18" height="18"><path fill-opacity=".3" d="M13 4c0-.55-.45-1-1-1h-1.5V1.5h-3V3H6c-.55 0-1 .45-1 1v7.5h8V4z"/><path d="M5 11.5V15c0 .55.45 1 1 1h6c.55 0 1-.45 1-1v-3.5H5z"/></svg><svg id="battery_50" viewBox="0 0 18 18" width="18" height="18"><path fill-opacity=".3" d="M13 4c0-.55-.45-1-1-1h-1.5V1.5h-3V3H6c-.55 0-1 .45-1 1v5.5h8V4z"/><path d="M5 9.5V15c0 .55.45 1 1 1h6c.55 0 1-.45 1-1V9.5H5z"/></svg><svg id="battery_60" viewBox="0 0 18 18" width="18" height="18"><path fill-opacity=".3" d="M13 4c0-.55-.45-1-1-1h-1.5V1.5h-3V3H6c-.55 0-1 .45-1 1v4.5h8V4z"/><path d="M5 8.5V15c0 .55.45 1 1 1h6c.55 0 1-.45 1-1V8.5H5z"/></svg><svg id="battery_80" viewBox="0 0 18 18" width="18" height="18"><path fill-opacity=".3" d="M13 4c0-.55-.45-1-1-1h-1.5V1.5h-3V3H6c-.55 0-1 .45-1 1v2.5h8V4z"/><path d="M5 6.5V15c0 .55.45 1 1 1h6c.55 0 1-.45 1-1V6.5H5z"/></svg><svg id="battery_90" viewBox="0 0 18 18" width="18" height="18"><path fill-opacity=".3" d="M13 4c0-.55-.45-1-1-1h-1.5V1.5h-3V3H6c-.55 0-1 .45-1 1v1.5h8V4z"/><path d="M5 5.5V15c0 .55.45 1 1 1h6c.55 0 1-.45 1-1V5.5H5z"/></svg><svg id="battery_alert" viewBox="0 0 18 18" width="18" height="18"><path d="M12 3h-1.5V1.5h-3V3H6c-.55 0-1 .45-1 1v11c0 .55.45 1 1 1h6c.55 0 1-.45 1-1V4c0-.55-.45-1-1-1zm-2 10H8v-2h2v2zm0-3H8V6h2v4z"/></svg><svg id="battery_charging_20" viewBox="0 0 18 18" width="18" height="18"><path fill-opacity=".3" d="M12 3h-1.5V1.5h-3V3H6c-.55 0-1 .45-1 1v8.5h3.5v-2h-2l3-6v4h2l-2 4H13V4c0-.55-.45-1-1-1z"/><path d="M8.5 14.5v-2H5V15c0 .55.45 1 1 1h6c.55 0 1-.45 1-1v-2.5H9.5l-1 2z"/></svg><svg id="battery_charging_30" viewBox="0 0 18 18" width="18" height="18"><path fill-opacity=".3" d="M12 3h-1.5V1.5h-3V3H6c-.55 0-1 .45-1 1v6.5h1.5l3-6v4h2l-1 2H13V4c0-.55-.45-1-1-1z"/><path d="M8.5 14.5v-4H5V15c0 .55.45 1 1 1h6c.55 0 1-.45 1-1v-4.5h-2.5l-2 4z"/></svg><svg id="battery_charging_50" viewBox="0 0 18 18" width="18" height="18"><path fill-opacity=".3" d="M12 3h-1.5V1.5h-3V3H6c-.55 0-1 .45-1 1v5.5h2l2.5-5v4h2l-.5 1h2V4c0-.55-.45-1-1-1z"/><path d="M8.5 14.5v-4h-2l.5-1H5V15c0 .55.45 1 1 1h6c.55 0 1-.45 1-1V9.5h-2l-2.5 5z"/></svg><svg id="battery_charging_60" viewBox="0 0 18 18" width="18" height="18"><path fill-opacity=".3" d="M12 3h-1.5V1.5h-3V3H6c-.55 0-1 .45-1 1v4.5h2.5l2-4v4H13V4c0-.55-.45-1-1-1z"/><path d="M8.5 14.5v-4h-2l1-2H5V15c0 .55.45 1 1 1h6c.55 0 1-.45 1-1V8.5h-1.5l-3 6z"/></svg><svg id="battery_charging_80" viewBox="0 0 18 18" width="18" height="18"><path fill-opacity=".3" d="M12 3h-1.5V1.5h-3V3H6c-.55 0-1 .45-1 1v2.5h3.5l1-2v2H13V4c0-.55-.45-1-1-1z"/><path d="M9.5 8.5h2l-3 6v-4h-2l2-4H5V15c0 .55.45 1 1 1h6c.55 0 1-.45 1-1V6.5H9.5v2z"/></svg><svg id="battery_charging_90" viewBox="0 0 18 18" width="18" height="18"><path fill-opacity=".3" d="M12 3h-1V1.5H7V3H6c-.55 0-1 .45-1 1v1.5h4l.5-1v1H13V4c0-.55-.45-1-1-1z"/><path d="M9.5 8.5h2l-3 6v-4h-2l2.5-5H5V15c0 .55.45 1 1 1h6c.55 0 1-.45 1-1V5.5H9.5v3z"/></svg><svg id="battery_charging_full" viewBox="0 0 18 18" width="18" height="18"><path d="M12 3h-1.5V1.5h-3V3H6c-.55 0-1 .45-1 1v11c0 .55.45 1 1 1h6c.55 0 1-.45 1-1V4c0-.55-.45-1-1-1zM8.5 14.5v-4h-2l3-6v4h2l-3 6z"/></svg><svg id="battery_full" viewBox="0 0 18 18" width="18" height="18"><path d="M12 3h-1.5V1.5h-3V3H6c-.55 0-1 .45-1 1v11c0 .55.45 1 1 1h6c.55 0 1-.45 1-1V4c0-.55-.45-1-1-1z"/></svg><svg id="battery_std" viewBox="0 0 18 18" width="18" height="18"><path d="M12 3h-1.5V1.5h-3V3H6c-.55 0-1 .45-1 1v11c0 .55.45 1 1 1h6c.55 0 1-.45 1-1V4c0-.55-.45-1-1-1z"/></svg><svg id="battery_unknown" viewBox="0 0 18 18" width="18" height="18"><path d="M12 3h-1.5V1.5h-3V3H6c-.55 0-1 .45-1 1v11c0 .55.45 1 1 1h6c.55 0 1-.45 1-1V4c0-.55-.45-1-1-1zM9.8 13.8H8.2v-1.6h1.6v1.6zm1.12-4.89s-.32.35-.56.59c-.4.4-.69 1.12-.69 1.5H8.2c0-.69.52-1.44.91-1.83l.78-.79c.23-.23.37-.54.37-.88 0-.69-.56-1.25-1.25-1.25s-1.25.56-1.25 1.25H6.5C6.5 6.12 7.62 5 9 5s2.5 1.12 2.5 2.5c0 .55-.22 1.05-.58 1.41z"/></svg><svg id="network_cell" viewBox="0 0 18 18" width="18" height="18"><path fill-opacity=".3" d="M1 16h15V1z"/><path d="M1 16h11V5z"/></svg><svg id="network_wifi" viewBox="0 0 18 18" width="18" height="18"><path fill-opacity=".3" d="M9.01 15.99l8.8-10.96C17.47 4.77 14.08 2 9 2S.53 4.77.19 5.03l8.8 10.96h.02z"/><path d="M2.73 8.19L9 15.99V16l.01-.01 6.27-7.8C14.96 7.94 12.56 6 9 6S3.04 7.94 2.73 8.19z"/></svg><svg id="signal_cellular_0_bar" viewBox="0 0 18 18" width="18" height="18"><path fill-opacity=".3" d="M1 16h15V1z"/></svg><svg id="signal_cellular_1_bar" viewBox="0 0 18 18" width="18" height="18"><path fill-opacity=".3" d="M1 16h15V1z"/><path d="M1 16h7V9z"/></svg><svg id="signal_cellular_2_bar" viewBox="0 0 18 18" width="18" height="18"><path fill-opacity=".3" d="M1 16h15V1z"/><path d="M1 16h9V7z"/></svg><svg id="signal_cellular_3_bar" viewBox="0 0 18 18" width="18" height="18"><path fill-opacity=".3" d="M1 16h15V1z"/><path d="M1 16h11V5z"/></svg><svg id="signal_cellular_4_bar" viewBox="0 0 18 18" width="18" height="18"><path d="M1 16h15V1z"/></svg><svg id="signal_cellular_connected_no_internet_0_bar" viewBox="0 0 18 18" width="18" height="18"><path d="M12 5h4V1zm0 11V5L1 16z" fill-opacity=".3"/><path d="M14 16h2v-2h-2v2zm0-9v5h2V7h-2z"/></svg><svg id="signal_cellular_connected_no_internet_1_bar" viewBox="0 0 18 18" width="18" height="18"><path d="M12 16V5L1 16zm0-11h4V1z" fill-opacity=".3"/><path d="M14 16h2v-2h-2v2zm-6 0V9l-7 7h7zm6-9v5h2V7h-2z"/></svg><svg id="signal_cellular_connected_no_internet_2_bar" viewBox="0 0 18 18" width="18" height="18"><path d="M16 1l-4 4h4zM1 16h11V5z" fill-opacity=".3"/><path d="M10 16V7l-9 9h9zm4-9v5h2V7h-2zm0 9h2v-2h-2v2z"/></svg><svg id="signal_cellular_connected_no_internet_3_bar" viewBox="0 0 18 18" width="18" height="18"><path fill-opacity=".3" d="M1 16h11V5zM16 1l-4 4h4z"/><path d="M12 16V5L1 16h11zm2-9v5h2V7h-2zm0 9h2v-2h-2v2z"/></svg><svg id="signal_cellular_connected_no_internet_4_bar" viewBox="0 0 18 18" width="18" height="18"><path d="M12 5h4V1zm2 11h2v-2h-2v2zm0-9v5h2V7h-2zm-2 9V5L1 16z"/></svg><svg id="signal_cellular_null" viewBox="0 0 18 18" width="18" height="18"><path d="M14 5.83V14H5.83L14 5.83M16 1L1 16h15V1z"/></svg><svg id="signal_cellular_off" viewBox="0 0 18 18" width="18" height="18"><path d="M15.5 1L9.31 7.19l6.19 6.19V1zM3.58 3.37l-.96.96L7.4 9.1 1 15.5h12.8l.25.25 1.5 1.5.95-.95L3.58 3.37z"/></svg><svg id="signal_wifi_0_bar" viewBox="0 0 18 18" width="18" height="18"><path fill-opacity=".3" d="M9.01 15.99l8.8-10.96C17.47 4.77 14.08 2 9 2S.53 4.77.19 5.03l8.8 10.96h.02z"/></svg><svg id="signal_wifi_1_bar" viewBox="0 0 18 18" width="18" height="18"><path fill-opacity=".3" d="M9.01 15.99l8.8-10.96C17.47 4.77 14.08 2 9 2S.53 4.77.19 5.03l8.8 10.96h.02z"/><path d="M5.24 11.31L9 16l3.76-4.68C12.57 11.17 11.14 10 9 10c-2.14 0-3.57 1.17-3.76 1.31z"/></svg><svg id="signal_wifi_2_bar" viewBox="0 0 18 18" width="18" height="18"><path fill-opacity=".3" d="M9.01 15.99l8.8-10.96C17.47 4.77 14.08 2 9 2S.53 4.77.19 5.03l8.8 10.96h.02z"/><path d="M3.98 9.75l5.01 6.24L9 16v-.01l5.01-6.24C13.76 9.56 11.85 8 9 8 6.15 8 4.24 9.56 3.98 9.75z"/></svg><svg id="signal_wifi_3_bar" viewBox="0 0 18 18" width="18" height="18"><path fill-opacity=".3" d="M9.01 15.99l8.8-10.96C17.47 4.77 14.08 2 9 2S.53 4.77.19 5.03l8.8 10.96h.02z"/><path d="M2.73 8.19L9 15.99V16l.01-.01 6.27-7.8C14.96 7.94 12.56 6 9 6S3.04 7.94 2.73 8.19z"/></svg><svg id="signal_wifi_4_bar" viewBox="0 0 18 18" width="18" height="18"><path d="M9.01 15.99l8.8-10.96C17.47 4.77 14.08 2 9 2S.53 4.77.19 5.03l8.8 10.96h.02z"/></svg><svg id="signal_wifi_off" viewBox="0 0 18 18" width="18" height="18"><path d="M17.81 5.03C17.47 4.77 14.08 2 9 2c-1.21 0-2.32.16-3.32.4l7.9 7.89 4.23-5.26zM1.5 2.04L2.86 3.4C1.31 4.13.36 4.9.19 5.03l8.8 10.96L9 16l.01-.01 2.87-3.58.06.06 2.49 2.49.95-.96L2.45 1.08l-.95.96z"/></svg><svg id="usb" viewBox="0 0 18 18" width="18" height="18"><path d="M11 6.5v2h.5V10h-2V5H11L9 2 7 5h1.5v5h-2V8.46c.35-.18.6-.54.6-.96 0-.61-.49-1.1-1.1-1.1-.61 0-1.1.49-1.1 1.1 0 .42.25.78.6.96V10c0 .55.45 1 1 1h2v2.09c-.58.21-1 .76-1 1.41 0 .83.67 1.5 1.5 1.5s1.5-.67 1.5-1.5c0-.65-.42-1.2-1-1.41V11h2c.55 0 1-.45 1-1V8.5h.5v-2h-2z"/></svg><svg id="wallpaper" viewBox="0 0 18 18" width="18" height="18"><path d="M13 6c0-.55-.45-1-1-1s-1 .45-1 1 .45 1 1 1 1-.45 1-1zm-4.71 6.93L6.5 10.79 4 14h10l-3.21-4.29-2.5 3.22zM3 3h5V1H3c-1.1 0-2 .9-2 2v5h2V3zm12 12h-5v2h5c1.1 0 2-.9 2-2v-5h-2v5zM3 10H1v5c0 1.1.9 2 2 2h5v-2H3v-5zm12-9h-5v2h5v5h2V3c0-1.1-.9-2-2-2z"/></svg><svg id="widgets" viewBox="0 0 18 18" width="18" height="18"><path d="M10 10v6h6v-6h-6zM2 8h6V2H2v6zm0 8h6v-6H2v6zm8 0h6v-6h-6v6zm7.25-11L13 .75 8.75 5 13 9.25 17.25 5z"/></svg></defs></svg>