<svg><defs><svg id="attachment" viewBox="0 0 18 18" width="18" height="18"><path d="M15 5H4C1.8 5 0 6.8 0 9s1.8 4 4 4h10v-1H4c-1.7 0-3-1.3-3-3s1.3-3 3-3h11c1.1 0 2 .9 2 2s-.9 2-2 2H6c-.6 0-1-.4-1-1s.4-1 1-1h8V7H6c-1.1 0-2 .9-2 2s.9 2 2 2h9c1.7 0 3-1.3 3-3s-1.3-3-3-3z"/></svg><svg id="cloud_circle" viewBox="0 0 18 18" width="18" height="18"><path d="M9 1C4.58 1 1 4.58 1 9s3.58 8 8 8 8-3.58 8-8-3.58-8-8-8zm3.5 11H6c-1.38 0-2.5-1.12-2.5-2.5S4.62 7 6 7h.18C6.6 5.84 7.7 5 9 5c1.66 0 3 1.34 3 3h.5c1.1 0 2 .9 2 2s-.9 2-2 2z"/></svg><svg id="folder" viewBox="0 0 18 18" width="18" height="18"><path d="M10 5L8 3H3c-.55 0-1 .45-1 1v10c0 .55.45 1 1 1h12c.55 0 1-.45 1-1V6c0-.55-.45-1-1-1h-5z"/></svg><svg id="folder_open" viewBox="0 0 18 18" width="18" height="18"><path d="M15 5h-5L8 3H3c-.55 0-1 .45-1 1v10c0 .55.45 1 1 1h12c.55 0 1-.45 1-1V6c0-.55-.45-1-1-1zm-1 8H4V7h10v6z"/></svg><svg id="folder_shared" viewBox="0 0 18 18" width="18" height="18"><path d="M16 4h-6L8 2H2c-.55 0-1 .45-1 1v12c0 .55.45 1 1 1h14c.55 0 1-.45 1-1V5c0-.55-.45-1-1-1zm-4.5 2.75c.97 0 1.75.78 1.75 1.75s-.78 1.75-1.75 1.75-1.75-.78-1.75-1.75.78-1.75 1.75-1.75zM15 14H8v-1.25C8 11.58 10.33 11 11.5 11s3.5.58 3.5 1.75V14z"/></svg></defs></svg>