<svg><defs><svg id="apps" viewBox="0 0 18 18" width="18" height="18"><path d="M2 10h3V7H2v3zm0-5h3V2H2v3zm0 10h3v-3H2v3zm5 0h3v-3H7v3zm5-5h3V7h-3v3zm-5 0h3V7H7v3zm5 5h3v-3h-3v3zm0-13v3h3V2h-3zM7 5h3V2H7v3z"/></svg><svg id="arrow_back" viewBox="0 0 18 18" width="18" height="18"><path d="M15 8.25H5.87l4.19-4.19L9 3 3 9l6 6 1.06-1.06-4.19-4.19H15v-1.5z"/></svg><svg id="arrow_drop_down" viewBox="0 0 18 18" width="18" height="18"><path d="M5 8l4 4 4-4z"/></svg><svg id="arrow_drop_up" viewBox="0 0 18 18" width="18" height="18"><path d="M9 6l-4 4h8z"/></svg><svg id="arrow_forward" viewBox="0 0 18 18" width="18" height="18"><path d="M9 3L7.94 4.06l4.19 4.19H3v1.5h9.13l-4.19 4.19L9 15l6-6z"/></svg><svg id="cancel" viewBox="0 0 18 18" width="18" height="18"><path d="M9 1C4.58 1 1 4.58 1 9s3.58 8 8 8 8-3.58 8-8-3.58-8-8-8zm4 10.87L11.87 13 9 10.13 6.13 13 5 11.87 7.87 9 5 6.13 6.13 5 9 7.87 11.87 5 13 6.13 10.13 9 13 11.87z"/></svg><svg id="check" viewBox="0 0 18 18" width="18" height="18"><path d="M6.61 11.89L3.5 8.78 2.44 9.84 6.61 14l8.95-8.95L14.5 4z"/></svg><svg id="chevron_left" viewBox="0 0 18 18" width="18" height="18"><path d="M11.56 5.56L10.5 4.5 6 9l4.5 4.5 1.06-1.06L8.12 9z"/></svg><svg id="chevron_right" viewBox="0 0 18 18" width="18" height="18"><path d="M7.5 4.5L6.44 5.56 9.88 9l-3.44 3.44L7.5 13.5 12 9z"/></svg><svg id="close" viewBox="0 0 18 18" width="18" height="18"><path d="M14.53 4.53l-1.06-1.06L9 7.94 4.53 3.47 3.47 4.53 7.94 9l-4.47 4.47 1.06 1.06L9 10.06l4.47 4.47 1.06-1.06L10.06 9z"/></svg><svg id="expand_less" viewBox="0 0 18 18" width="18" height="18"><path d="M9 6l-4.5 4.5 1.06 1.06L9 8.12l3.44 3.44 1.06-1.06z"/></svg><svg id="expand_more" viewBox="0 0 18 18" width="18" height="18"><path d="M12.44 6.44L9 9.88 5.56 6.44 4.5 7.5 9 12l4.5-4.5z"/></svg><svg id="fullscreen" viewBox="0 0 18 18" width="18" height="18"><path d="M4.5 11H3v4h4v-1.5H4.5V11zM3 7h1.5V4.5H7V3H3v4zm10.5 6.5H11V15h4v-4h-1.5v2.5zM11 3v1.5h2.5V7H15V3h-4z"/></svg><svg id="fullscreen_exit" viewBox="0 0 18 18" width="18" height="18"><path d="M3 12.5h2.5V15H7v-4H3v1.5zm2.5-7H3V7h4V3H5.5v2.5zM11 15h1.5v-2.5H15V11h-4v4zm1.5-9.5V3H11v4h4V5.5h-2.5z"/></svg><svg id="menu" viewBox="0 0 18 18" width="18" height="18"><path d="M2 13.5h14V12H2v1.5zm0-4h14V8H2v1.5zM2 4v1.5h14V4H2z"/></svg><svg id="more_horiz" viewBox="0 0 18 18" width="18" height="18"><path d="M4 7.5c-.83 0-1.5.67-1.5 1.5s.67 1.5 1.5 1.5S5.5 9.83 5.5 9 4.83 7.5 4 7.5zm10 0c-.83 0-1.5.67-1.5 1.5s.67 1.5 1.5 1.5 1.5-.67 1.5-1.5-.67-1.5-1.5-1.5zm-5 0c-.83 0-1.5.67-1.5 1.5s.67 1.5 1.5 1.5 1.5-.67 1.5-1.5S9.83 7.5 9 7.5z"/></svg><svg id="more_vert" viewBox="0 0 18 18" width="18" height="18"><path d="M9 5.5c.83 0 1.5-.67 1.5-1.5S9.83 2.5 9 2.5 7.5 3.17 7.5 4 8.17 5.5 9 5.5zm0 2c-.83 0-1.5.67-1.5 1.5s.67 1.5 1.5 1.5 1.5-.67 1.5-1.5S9.83 7.5 9 7.5zm0 5c-.83 0-1.5.67-1.5 1.5s.67 1.5 1.5 1.5 1.5-.67 1.5-1.5-.67-1.5-1.5-1.5z"/></svg><svg id="refresh" viewBox="0 0 18 18" width="18" height="18"><path d="M9 13.5c-2.49 0-4.5-2.01-4.5-4.5S6.51 4.5 9 4.5c1.24 0 2.36.52 3.17 1.33L10 8h5V3l-1.76 1.76C12.15 3.68 10.66 3 9 3 5.69 3 3.01 5.69 3.01 9S5.69 15 9 15c2.97 0 5.43-2.16 5.9-5h-1.52c-.46 2-2.24 3.5-4.38 3.5z"/></svg><svg id="unfold_less" viewBox="0 0 18 18" width="18" height="18"><path d="M5.56 14.44l1.06 1.06L9 13.12l2.38 2.38 1.06-1.06L9 11l-3.44 3.44zm6.88-10.88L11.38 2.5 9 4.88 6.62 2.5 5.56 3.56 9 7l3.44-3.44z"/></svg><svg id="unfold_more" viewBox="0 0 18 18" width="18" height="18"><path d="M9 4.12l2.38 2.38 1.06-1.06L9 2 5.56 5.44 6.62 6.5 9 4.12zm0 9.76L6.62 11.5l-1.06 1.06L9 16l3.44-3.44-1.06-1.06L9 13.88z"/></svg></defs></svg>