<svg><defs><svg id="adb" viewBox="0 0 18 18" width="18" height="18"><path d="M4 12c0 2.76 2.24 5 5 5s5-2.24 5-5V9H4v3zm7.95-8.91l1.5-1.5-.59-.59-1.65 1.65c-.67-.34-1.41-.54-2.21-.54s-1.54.2-2.21.54L5.14 1l-.58.59 1.5 1.5C4.81 4 4 5.45 4 7.11V8h10v-.89c0-1.66-.81-3.11-2.05-4.02zM7 6H6V5h1v1zm5 0h-1V5h1v1z"/></svg><svg id="event_note" viewBox="0 0 18 18" width="18" height="18"><path d="M13 7H5v2h8V7zm-3 3H5v2h5v-2zm5-8h-1V1h-2v1H6V1H4v1H3c-.55 0-1 .45-1 1v12c0 .55.45 1 1 1h12c.55 0 1-.45 1-1V3c0-.55-.45-1-1-1zm-1 12H4V6h10v8z"/></svg><svg id="vibration" viewBox="0 0 18 18" width="18" height="18"><path d="M0 11h1V7H0v4zm2 2h1V5H2v8zm15-6v4h1V7h-1zm-2 6h1V5h-1v8zM12.5 2h-7C4.67 2 4 2.67 4 3.5v11c0 .83.67 1.5 1.5 1.5h7c.83 0 1.5-.67 1.5-1.5v-11c0-.83-.67-1.5-1.5-1.5zm0 12.5h-7v-11h7v11z"/></svg></defs></svg>