<svg><defs><svg id="domain" viewBox="0 0 18 18" width="18" height="18"><path d="M14 8h-1v1h1V8zM9 5V2H1v14h16V5H9zm-5 9H3v-1h1v1zm0-3H3v-1h1v1zm0-3H3V7h1v1zm0-3H3V4h1v1zm3 9H6v-1h1v1zm0-3H6v-1h1v1zm0-3H6V7h1v1zm0-3H6V4h1v1zm8 9H9V7h6v7zm-4-6h-1v1h1V8zm3 4h-1v1h1v-1zm-3 0h-1v1h1v-1z"/></svg><svg id="group" viewBox="0 0 18 18" width="18" height="18"><path d="M6 8c1.11 0 2-.9 2-2s-.89-2-2-2c-1.1 0-2 .9-2 2s.9 2 2 2zm6 0c1.11 0 2-.9 2-2s-.89-2-2-2c-1.11 0-2 .9-2 2s.9 2 2 2zM6 9.2c-1.67 0-5 .83-5 2.5V13h10v-1.3c0-1.67-3.33-2.5-5-2.5zm6 0c-.25 0-.54.02-.84.06.79.6 1.34 1.4 1.34 2.44V13H17v-1.3c0-1.67-3.33-2.5-5-2.5z"/></svg><svg id="group_add" viewBox="0 0 18 18" width="18" height="18"><path d="M9 8c1.11 0 2-.9 2-2s-.89-2-2-2c-1.1 0-2 .9-2 2s.9 2 2 2zm4 0c1.11 0 2-.9 2-2s-.89-2-2-2c-.36 0-.69.1-.98.27.3.51.48 1.1.48 1.73s-.18 1.22-.48 1.73c.29.17.63.27.98.27zM9 9.2c-1.67 0-5 .83-5 2.5V13h10v-1.3c0-1.67-3.33-2.5-5-2.5zM5 7H3V5H2v2H0v1h2v2h1V8h2V7zm9.23 2.31c.75.6 1.27 1.38 1.27 2.39V13H18v-1.3c0-1.31-2.07-2.11-3.77-2.39z"/></svg><svg id="location_city" viewBox="0 0 18 18" width="18" height="18"><path d="M12 8V3.5L9.5 1 7 3.5V5H2v11h15V8h-5zm-7 6H4v-1h1v1zm0-3H4v-1h1v1zm0-3H4V7h1v1zm5 6H9v-1h1v1zm0-3H9v-1h1v1zm0-3H9V7h1v1zm0-3H9V4h1v1zm5 9h-1v-1h1v1zm0-3h-1v-1h1v1z"/></svg><svg id="mood" viewBox="0 0 18 18" width="18" height="18"><path d="M6 8c.55 0 1-.45 1-1s-.45-1-1-1-1 .45-1 1 .45 1 1 1zm6 0c.55 0 1-.45 1-1s-.45-1-1-1-1 .45-1 1 .45 1 1 1zm-3 5.5c2.14 0 3.92-1.5 4.38-3.5H4.62c.46 2 2.24 3.5 4.38 3.5zM9 1C4.57 1 1 4.58 1 9s3.57 8 8 8 8-3.58 8-8-3.58-8-8-8zm0 14.5c-3.59 0-6.5-2.91-6.5-6.5S5.41 2.5 9 2.5s6.5 2.91 6.5 6.5-2.91 6.5-6.5 6.5z"/></svg><svg id="pages" viewBox="0 0 18 18" width="18" height="18"><path d="M5.5 10H2v5c0 .55.45 1 1 1h5v-3.5l-3.5 1 1-3.5zM2 3v5h3.5l-1-3.5 3.5 1V2H3c-.55 0-1 .45-1 1zm13-1h-5v3.5l3.5-1-1 3.5H16V3c0-.55-.45-1-1-1zm-1.5 11.5l-3.5-1V16h5c.55 0 1-.45 1-1v-5h-3.5l1 3.5z"/></svg><svg id="people" viewBox="0 0 18 18" width="18" height="18"><path d="M6 8c1.11 0 2-.9 2-2s-.89-2-2-2c-1.1 0-2 .9-2 2s.9 2 2 2zm6 0c1.11 0 2-.9 2-2s-.89-2-2-2c-1.11 0-2 .9-2 2s.9 2 2 2zM6 9.2c-1.67 0-5 .83-5 2.5V13h10v-1.3c0-1.67-3.33-2.5-5-2.5zm6 0c-.25 0-.54.02-.84.06.79.6 1.34 1.4 1.34 2.44V13H17v-1.3c0-1.67-3.33-2.5-5-2.5z"/></svg><svg id="person" viewBox="0 0 18 18" width="18" height="18"><path d="M9 8c1.66 0 2.99-1.34 2.99-3S10.66 2 9 2C7.34 2 6 3.34 6 5s1.34 3 3 3zm0 2c-2.33 0-7 1.17-7 3.5V16h14v-2.5c0-2.33-4.67-3.5-7-3.5z"/></svg><svg id="person_add" viewBox="0 0 18 18" width="18" height="18"><path d="M10 8c1.66 0 2.99-1.34 2.99-3S11.66 2 10 2 7 3.34 7 5s1.34 3 3 3zm-6 2V8h2V6H4V4H2v2H0v2h2v2h2zm6 0c-2.33 0-7 1.17-7 3.5V16h14v-2.5c0-2.33-4.67-3.5-7-3.5z"/></svg><svg id="person_outline" viewBox="0 0 18 18" width="18" height="18"><path d="M9 10c-2.33 0-7 1.17-7 3.5V16h14v-2.5c0-2.33-4.67-3.5-7-3.5zm5.29 4.29H3.71v-.79c.1-.49 2.59-1.79 5.29-1.79s5.19 1.3 5.29 1.79v.79zM9 9c2.22 0 4-1.79 4-4s-1.78-4-4-4C6.79 1 5.01 2.79 5.01 5S6.79 9 9 9zm0-6.29c1.26 0 2.28 1.03 2.28 2.29S10.26 7.29 9 7.29C7.75 7.29 6.72 6.26 6.72 5S7.75 2.71 9 2.71z"/></svg><svg id="poll" viewBox="0 0 18 18" width="18" height="18"><path d="M16 1H2c-.55 0-1 .45-1 1v14c0 .55.45 1 1 1h14c.55 0 1-.45 1-1V2c0-.55-.45-1-1-1zM7 13H5V8h2v5zm3 0H8V5h2v8zm3 0h-2V9h2v4z"/></svg><svg id="whatshot" viewBox="0 0 18 18" width="18" height="18"><path d="M10.19 1.5s.49 1.99.49 3.6c0 1.55-1.01 2.8-2.56 2.8S5.4 6.65 5.4 5.1l.02-.27C3.91 6.64 3 8.96 3 11.5c0 3.31 2.69 6 6 6s6-2.69 6-6c0-4.05-1.88-7.65-4.81-10zM8.91 15c-1.34 0-2.42-1.05-2.42-2.35 0-1.22.78-2.07 2.11-2.34 1.33-.27 2.7-.91 3.46-1.93.29.97.45 1.99.45 3.03 0 1.98-1.62 3.59-3.6 3.59z"/></svg></defs></svg>