<svg><defs><svg id="apps" viewBox="0 0 36 36" width="36" height="36"><path d="M6 12h6V6H6v6zm9 18h6v-6h-6v6zm-9 0h6v-6H6v6zm0-9h6v-6H6v6zm9 0h6v-6h-6v6zm9-15v6h6V6h-6zm-9 6h6V6h-6v6zm9 9h6v-6h-6v6zm0 9h6v-6h-6v6z"/></svg><svg id="arrow_back" viewBox="0 0 36 36" width="36" height="36"><path d="M30 16.5H11.74l8.38-8.38L18 6 6 18l12 12 2.12-2.12-8.38-8.38H30v-3z"/></svg><svg id="arrow_drop_down" viewBox="0 0 36 36" width="36" height="36"><path d="M10.5 15l7.5 7.5 7.5-7.5z"/></svg><svg id="arrow_drop_up" viewBox="0 0 36 36" width="36" height="36"><path d="M10.5 21l7.5-7.5 7.5 7.5z"/></svg><svg id="arrow_forward" viewBox="0 0 36 36" width="36" height="36"><path d="M18 6l-2.12 2.12 8.38 8.38H6v3h18.26l-8.38 8.38L18 30l12-12z"/></svg><svg id="cancel" viewBox="0 0 36 36" width="36" height="36"><path d="M18 3C9.71 3 3 9.71 3 18s6.71 15 15 15 15-6.71 15-15S26.29 3 18 3zm7.5 20.38l-2.12 2.12L18 20.12l-5.38 5.38-2.12-2.12L15.88 18l-5.38-5.38 2.12-2.12L18 15.88l5.38-5.38 2.12 2.12L20.12 18l5.38 5.38z"/></svg><svg id="check" viewBox="0 0 36 36" width="36" height="36"><path d="M13.5 24.26L7.24 18l-2.12 2.12 8.38 8.38 18-18-2.12-2.12z"/></svg><svg id="chevron_left" viewBox="0 0 36 36" width="36" height="36"><path d="M23.12 11.12L21 9l-9 9 9 9 2.12-2.12L16.24 18z"/></svg><svg id="chevron_right" viewBox="0 0 36 36" width="36" height="36"><path d="M15 9l-2.12 2.12L19.76 18l-6.88 6.88L15 27l9-9z"/></svg><svg id="close" viewBox="0 0 36 36" width="36" height="36"><path d="M28.5 9.62L26.38 7.5 18 15.88 9.62 7.5 7.5 9.62 15.88 18 7.5 26.38l2.12 2.12L18 20.12l8.38 8.38 2.12-2.12L20.12 18z"/></svg><svg id="expand_less" viewBox="0 0 36 36" width="36" height="36"><path d="M18 12l-9 9 2.12 2.12L18 16.24l6.88 6.88L27 21z"/></svg><svg id="expand_more" viewBox="0 0 36 36" width="36" height="36"><path d="M24.88 12.88L18 19.76l-6.88-6.88L9 15l9 9 9-9z"/></svg><svg id="fullscreen" viewBox="0 0 36 36" width="36" height="36"><path d="M10 21H7v8h8v-3h-5v-5zm-3-6h3v-5h5V7H7v8zm19 11h-5v3h8v-8h-3v5zM21 7v3h5v5h3V7h-8z"/></svg><svg id="fullscreen_exit" viewBox="0 0 36 36" width="36" height="36"><path d="M7 24h5v5h3v-8H7v3zm5-12H7v3h8V7h-3v5zm9 17h3v-5h5v-3h-8v8zm3-17V7h-3v8h8v-3h-5z"/></svg><svg id="menu" viewBox="0 0 36 36" width="36" height="36"><path d="M4 27h28v-3H4v3zm0-8h28v-3H4v3zM4 8v3h28V8H4z"/></svg><svg id="more_horiz" viewBox="0 0 36 36" width="36" height="36"><path d="M9 15c-1.66 0-3 1.34-3 3s1.34 3 3 3 3-1.34 3-3-1.34-3-3-3zm18 0c-1.66 0-3 1.34-3 3s1.34 3 3 3 3-1.34 3-3-1.34-3-3-3zm-9 0c-1.66 0-3 1.34-3 3s1.34 3 3 3 3-1.34 3-3-1.34-3-3-3z"/></svg><svg id="more_vert" viewBox="0 0 36 36" width="36" height="36"><path d="M18 12c1.66 0 3-1.34 3-3s-1.34-3-3-3-3 1.34-3 3 1.34 3 3 3zm0 3c-1.66 0-3 1.34-3 3s1.34 3 3 3 3-1.34 3-3-1.34-3-3-3zm0 9c-1.66 0-3 1.34-3 3s1.34 3 3 3 3-1.34 3-3-1.34-3-3-3z"/></svg><svg id="refresh" viewBox="0 0 36 36" width="36" height="36"><path d="M26.47 9.53C24.3 7.35 21.32 6 18 6 11.37 6 6 11.37 6 18s5.37 12 12 12c5.94 0 10.85-4.33 11.81-10h-3.04c-.91 4.01-4.49 7-8.77 7-4.97 0-9-4.03-9-9s4.03-9 9-9c2.49 0 4.71 1.03 6.34 2.66L20 16h10V6l-3.53 3.53z"/></svg><svg id="unfold_less" viewBox="0 0 36 36" width="36" height="36"><path d="M11.12 27.88L13.24 30 18 25.24 22.76 30l2.12-2.12L18 21l-6.88 6.88zM24.88 8.12L22.76 6 18 10.76 13.24 6l-2.12 2.12L18 15l6.88-6.88z"/></svg><svg id="unfold_more" viewBox="0 0 36 36" width="36" height="36"><path d="M18 9.24L22.76 14l2.12-2.12L18 5l-6.88 6.88L13.24 14 18 9.24zm0 17.52L13.24 22l-2.12 2.12L18 31l6.88-6.88L22.76 22 18 26.76z"/></svg></defs></svg>